<?xml version="1.0" encoding="UTF-8"?>
<svg width="106px" height="27px" viewBox="0 0 106 27" version="1.1" xmlns="http://www.w3.org/2000/svg" xmlns:xlink="http://www.w3.org/1999/xlink">
    <!-- Generator: Sketch 48.2 (47327) - http://www.bohemiancoding.com/sketch -->
    <title>Group Copy</title>
    <desc>Created with Sketch.</desc>
    <defs>
        <g id="logo-text" stroke="none" stroke-width="1" fill="none" fill-rule="evenodd" transform="translate(-114.000000, -18.000000)">
            <g id="Group-Copy" transform="translate(114.000000, 18.000000)" fill="currentColor" fill-rule="nonzero">
                <path d="M68.9741362,19.7152653 C68.5790777,19.7293508 68.2151565,19.9336113 67.9971021,20.263652 C67.3621703,21.1399408 66.6093432,21.9242351 65.7599679,22.5942955 C65.0361763,23.0821286 64.1755056,23.3255215 63.3036859,23.2889187 C62.0736063,23.3774681 60.9107115,22.7179925 60.3543213,21.6163392 C63.2397678,20.9125763 65.2851476,19.9528995 66.4813296,18.7555885 C67.661185,17.6331531 68.3225652,16.0708225 68.3075615,14.441613 C68.3741154,13.1783791 67.9145684,11.9440424 67.0383303,11.0324756 C66.127816,10.1747046 64.9088538,9.7229331 63.6598012,9.78032588 C62.1478478,9.75827892 60.6656367,10.2017667 59.4138119,11.0507551 C58.1536026,11.9216507 57.1456064,13.1103171 56.4918407,14.4964517 C55.7833451,15.9538101 55.4208456,17.5553183 55.4326262,19.1760183 C55.4345611,19.6435742 55.4650552,20.1105742 55.5239378,20.5744045 C54.8426662,21.1737874 54.098731,21.6977915 53.3050659,22.1373066 C52.1780892,22.8250001 50.8976857,23.220792 49.5795527,23.2889187 C47.881157,23.2889187 46.7306308,22.7313922 46.1188431,21.6163392 C48.9860273,20.9125763 51.0131448,19.9528995 52.2184579,18.7555885 C53.3946428,17.6306118 54.0553163,16.0699505 54.0446899,14.441613 C54.1088187,13.1770383 53.6458952,11.9425135 52.7663275,11.0324756 C51.8558132,10.1747046 50.636851,9.7229331 49.3877984,9.78032588 C47.8782873,9.7553968 46.398138,10.1992221 45.1509402,11.0507551 C43.8859023,11.9188048 42.8742883,13.1080211 42.2198379,14.4964517 C41.29722,16.4321097 40.9790039,18.6012067 41.3067219,20.7206409 C40.8976454,21.1787 40.4648424,21.6149623 40.0100972,22.0276293 C39.5603463,22.5262477 38.9491676,22.8499278 38.284308,22.9416071 C37.5812087,22.9416071 37.2250935,22.4571989 37.2250935,21.4883823 C37.3366447,20.0727673 37.5688115,18.6692785 37.9190616,17.2932239 C38.3359941,15.6108538 38.6048695,13.8951557 38.7226037,12.1658081 C38.8153567,11.513914 38.5962129,10.8563355 38.131042,10.3907255 C37.6658711,9.9251155 37.0089127,9.70576491 36.3576333,9.79860544 C35.4200637,9.837779 34.509574,10.1247436 33.7187281,10.6303253 C32.5706728,11.3684586 31.5754921,12.3211341 30.7876258,13.4362373 C29.6573425,15.0026976 28.7507216,16.7192127 28.0939336,18.5362338 C28.1687946,17.6166095 28.2907034,16.7014307 28.45918,15.7943002 C28.6052786,15.0631179 28.7970329,14.2131185 29.0435743,13.244302 C29.3107766,12.3897893 29.4942645,11.5112767 29.5914438,10.6211855 C29.6244263,10.3567017 29.5128244,10.0948877 29.2992467,9.93570212 C28.9801296,9.786479 28.6275494,9.72345883 28.2765568,9.75290654 C27.5478652,9.71390099 26.8229962,9.88182379 26.1855212,10.2373148 C25.6570398,10.6124787 25.2785133,11.1629935 25.1171755,11.7910772 C24.204437,14.7008578 23.7485375,17.734834 23.7657639,20.7846194 L23.7657639,20.8577376 C23.3916602,21.2504591 22.9854328,21.6112116 22.5513196,21.9362315 C22.0216164,22.3277979 21.383463,22.5449748 20.7250877,22.5577364 C20.2228116,22.5826279 19.7373123,22.3733961 19.4102006,21.9910702 C19.0425043,21.4900713 18.8645222,20.8746436 18.9079868,20.2545122 C18.9354186,19.3879742 19.0177646,18.5240521 19.1545282,17.6679549 C19.4741188,15.0813975 19.9124144,12.1840877 20.460284,9.10398226 C20.7250877,7.504521 20.9259732,6.25237132 21.0538094,5.35667301 C21.1729635,4.62815313 21.2400954,3.89205965 21.2546949,3.15398636 C21.3248136,2.36365381 21.121741,1.5731816 20.6794319,0.914740591 C20.2256352,0.387549143 19.545612,0.111879814 18.8531999,0.17441852 C18.1612912,0.0877751513 17.472953,0.35992538 17.0269679,0.896461034 C16.6446197,1.60185235 16.4173493,2.38091019 16.3603933,3.1814057 C15.9391261,6.94379383 15.1093773,10.6490083 13.8858489,14.2313981 C13.1747438,16.5146903 12.0169695,18.633584 10.4799263,20.4647271 C9.61335757,21.5441693 8.34292585,22.2212715 6.96442979,22.3383817 C6.46236535,22.3684144 5.97015216,22.1898601 5.60388698,21.8448337 C5.27020895,21.4653402 5.09958301,20.969401 5.12906666,20.4647271 C5.12946573,20.0642255 5.15692184,19.6642094 5.2112471,19.2674161 C5.27516522,18.8561261 7.03747907,5.10075921 7.5305617,2.53248141 C8.02364433,-0.0357963887 3.75939269,-1.40676319 2.80975207,2.15775049 C1.86011145,5.72226416 0.983520102,14.6244086 0.271289635,17.9421482 C-0.577908229,22.0276293 0.700454147,24.0292408 2.25275132,25.1808529 C5.04342993,27.1564544 8.85896598,26.7869859 11.2195503,24.3125739 C12.5113038,22.8919266 13.5546855,21.26358 14.3058823,19.4959106 C14.2000804,20.2748931 14.1360704,21.0589923 14.1141279,21.8448337 C14.0683945,23.1759268 14.5816926,24.4653552 15.5294577,25.4002076 C16.6486287,26.3722625 18.1048678,26.8646996 19.5836927,26.7711744 C20.7736723,26.770829 21.942399,26.455511 22.971353,25.8571965 C23.3681462,25.6243154 23.7466602,25.3615498 24.1036168,25.0711756 C24.1036168,25.2265518 24.1949284,25.381928 24.2497153,25.5190247 C24.4911062,26.3906865 25.2911206,26.988444 26.1946524,26.9722495 C26.8075484,27.0254716 27.41258,26.804644 27.8473923,26.3690241 C28.324629,25.6783816 28.6370303,24.8872602 28.7605083,24.0566601 C29.1128426,22.609517 29.5925823,21.1964663 30.1941004,19.8340824 C30.6738298,18.7077721 31.2609407,17.6303862 31.9472831,16.6168803 C32.513415,15.80344 32.9517107,15.39215 33.2713013,15.39215 C33.5908919,15.39215 33.6730723,15.5932251 33.6730723,15.9770958 C33.60668,17.0460136 33.4478116,18.1071558 33.198252,19.148599 C32.9302365,20.3515577 32.7592378,21.5741301 32.686907,22.8045105 C32.5997361,23.9202666 32.9246448,25.0292513 33.600023,25.921175 C34.330128,26.6755616 35.3567644,27.0671898 36.4032891,26.9905291 C37.8612275,27.0103193 39.2897698,26.5794371 40.4940487,25.756659 C41.2190766,25.2513342 41.9002397,24.6857104 42.5302973,24.0657999 C42.7385294,24.3558611 42.9706632,24.6279586 43.2242655,24.8792402 C44.8406277,26.3401801 46.976678,27.0880093 49.1503882,26.95397 C50.9937861,26.9606967 52.806914,26.4849315 54.4099363,25.5738634 C55.2131061,25.1244825 55.9767703,24.6077582 56.6927262,24.0292408 C56.8822291,24.323846 57.0960359,24.6020572 57.3319074,24.8609607 C58.7515864,26.3121695 60.7302969,27.0757258 62.7558163,26.95397 C64.1215417,26.9884757 65.4752123,26.6905125 66.7004774,26.085691 C67.7883184,25.5178116 68.7102075,24.6769354 69.3759072,23.6453701 C69.7999908,22.9702744 70.0159556,22.1850738 69.9968261,21.3878448 C70.0190524,20.9680489 69.9242073,20.5503368 69.7228913,20.181394 C69.5813802,19.8968584 69.2916764,19.7165067 68.9741362,19.7152653 Z M45.5161866,18.7007498 C45.4717144,17.3769683 45.7873229,16.065957 46.4293026,14.9077417 C46.8398263,14.0057537 47.714515,13.4044969 48.7029614,13.3448396 C49.0948524,13.3248107 49.4756559,13.4786133 49.7439136,13.7652694 C50.0083961,14.0712195 50.1456482,14.4670096 50.1274223,14.8711826 C50.1059932,15.8111908 49.6465147,16.687053 48.8855846,17.2383853 C47.8910815,18.0013248 46.7354523,18.5265381 45.5070554,18.7738681 L45.5161866,18.7007498 Z M59.8064517,18.7007498 C59.7597234,17.3848086 60.0688911,16.0806579 60.7013054,14.9260213 C61.1118292,14.0240332 61.9865178,13.4227764 62.9749642,13.3631191 C63.3643714,13.3420031 63.7428256,13.4962095 64.0067852,13.7835489 C64.2712678,14.0894991 64.4085199,14.4852892 64.390294,14.8894621 C64.3724175,15.8282142 63.9161701,16.7043595 63.1575874,17.2566648 C62.1640612,18.0118252 61.0118123,18.5306704 59.7881894,18.7738681 L59.8064517,18.7007498 Z" id="Shape"></path>
                <path d="M81.1463135,14.012728 L73.8827695,14.6081248 C73.3687123,14.6125957 72.8735581,14.7710055 72.48696,15.0546724 C72.1363543,15.3755956 71.9622519,15.8047348 72.0068727,16.2380235 C71.9686885,16.7209763 72.1532479,17.1977928 72.522522,17.5702238 C72.8635977,17.891511 73.3745232,18.0480578 73.8827695,17.9870015 L81.1463135,17.3990472 C81.6770622,17.3979857 82.1819354,17.2069762 82.5335966,16.8741941 C82.8852579,16.5414119 83.0501367,16.0986254 82.9866483,15.6575116 C83.0244064,15.2023098 82.8526285,14.7522707 82.506561,14.3997359 C82.1516833,14.0980307 81.6473104,13.9545301 81.1463135,14.012728 Z" id="Shape"></path>
                <path d="M105.509007,2.15374213 C105.094446,1.81014289 104.587752,1.58849026 104.048272,1.51474649 C102.861265,1.31416547 101.663269,1.18081654 100.460344,1.11537421 C99.0909051,1.03549976 97.246728,1 94.9825898,1 C91.2577173,1 83.6436396,1.39049734 82.0368318,1.94961853 C80.4300241,2.50873971 80.3843761,5.91671648 84.1183783,5.36647023 C86.7659592,4.98484783 90.0160931,4.69197483 90.5912572,4.69197483 C90.4908318,5.1800965 90.3904063,5.57946878 90.30824,6.01434082 L90.0891298,7.07045862 C89.796983,8.42832436 89.5048361,9.8749395 89.1761709,11.4014291 C88.8475056,12.9279187 88.6192659,14.4632832 88.3910262,16.0075227 C88.2632119,16.8950166 88.0806201,18.0043841 87.8523804,19.2468756 C87.6241406,20.4893671 87.459808,21.6697341 87.304605,22.7968514 C87.1780319,23.6023883 87.0987804,24.4142821 87.0672357,25.2285848 C87.0517203,25.7150836 87.2590528,26.1831985 87.6332702,26.5065761 C88.0870642,26.8592013 88.6604861,27.0333974 89.240078,26.9946978 C89.8306398,27.0086332 90.4111302,26.8443044 90.9016633,26.524326 C91.3572159,26.2115335 91.6345961,25.7084187 91.6502896,25.1664603 C91.7324559,24.0482179 91.9059181,22.5749779 92.1524171,20.7289905 C92.398916,18.8830031 92.6454149,17.3032639 92.8736546,15.9187733 C93.5248987,12.1380491 94.2370067,8.37507472 95.0099786,4.62985025 C96.7263414,4.62985025 98.114039,4.66535001 99.1730714,4.73634953 C100.222974,4.78959917 101.701968,4.8872235 103.582663,5.02922253 C104.216675,5.13300629 104.867716,5.00326571 105.408581,4.66535001 C105.826999,4.29211331 106.042958,3.75087478 105.992875,3.200985 C105.986,2.80220182 105.811085,2.42363216 105.509007,2.15374213 Z" id="Shape"></path>
            </g>
        </g>
    </defs>
</svg>