<svg xmlns="http://www.w3.org/2000/svg" viewBox="0 0 119.19 119.33">
    <defs>
        <g id="icon" data-name="Layer 2">
            <g id="Layer_1-2" data-name="Layer 1">
                <path
                        id="_Path_"
                        data-name="&lt;Path&gt;"
                        class="cls-1"
                        fill="#0099bc"
                        d="M59.6,0A59.58,59.58,0,0,0,14.7,98.77C11.63,105,7.48,112.06,2.84,116.44c-6.7,6.32,16,.88,30.89-3.14A59.6,59.6,0,1,0,59.6,0Z"
                />
                <g id="_Group_" data-name="&lt;Group&gt;">
                    <path
                            id="_Path_2"
                            data-name="&lt;Path&gt;"
                            class="cls-2"
                            fill="#fff"
                            d="M97.53,61.2,83.76,47.87l-1.68,2.55-.84,1.28,9.17,8.86H87.34a2.25,2.25,0,0,0-2.25,2.25v25H36.27v-25A2.25,2.25,0,0,0,34,60.56H31L60.68,31.65,74.94,45.52l.5-.77,2-3.07L62.25,26.9a2.25,2.25,0,0,0-3.14,0L23.83,61.2a2.25,2.25,0,0,0,1.57,3.86h6.36v25A2.25,2.25,0,0,0,34,92.35H87.34A2.25,2.25,0,0,0,89.6,90.1v-25H96a2.25,2.25,0,0,0,1.57-3.86Z"
                    />
                </g>
                <path
                        class="cls-3"
                        fill="#cfd924"
                        d="M47,68.36c2.49,2.81,5.85,6.69,9.49,11.14a3,3,0,0,0,5.11-1c3-9.23,11.32-28,30.73-38.69a.59.59,0,0,0-.47-1.08C81.77,42.09,63.34,53.59,57.55,71.09c0,0-4-5.23-8.07-6.52A2.34,2.34,0,0,0,47,68.36Z"
                />
                <path
                        id="_Path_3"
                        data-name="&lt;Path&gt;"
                        class="cls-1"
                        fill="#0099bc"
                        d="M59.6,0A59.58,59.58,0,0,0,14.7,98.77C11.63,105,7.48,112.06,2.84,116.44c-6.7,6.32,16,.88,30.89-3.14A59.6,59.6,0,1,0,59.6,0Z"
                />
                <g id="_Group_2" data-name="&lt;Group&gt;">
                    <path
                            id="_Path_4"
                            data-name="&lt;Path&gt;"
                            class="cls-2"
                            fill="#fff"
                            d="M97.53,61.2,83.89,48l-3.25,3.11,9.77,9.47H87.34a2.25,2.25,0,0,0-2.25,2.25v25H36.27v-25A2.25,2.25,0,0,0,34,60.56H31L60.68,31.65,75.36,45.94l3.5-2.86L62.25,26.9a2.25,2.25,0,0,0-3.14,0L23.83,61.2a2.25,2.25,0,0,0,1.57,3.86h6.36v25A2.25,2.25,0,0,0,34,92.35H87.34A2.25,2.25,0,0,0,89.6,90.1v-25H96a2.25,2.25,0,0,0,1.57-3.86Z"
                    />
                </g>
                <path
                        class="cls-3"
                        fill="#cfd924"
                        d="M47,68.36c2.49,2.81,5.85,6.69,9.49,11.14a3,3,0,0,0,5.11-1c3-9.23,11.32-28,30.73-38.69a.59.59,0,0,0-.47-1.08C81.77,42.09,63.34,53.59,57.55,71.09c0,0-4-5.23-8.07-6.52A2.34,2.34,0,0,0,47,68.36Z"
                />
            </g>
        </g>
    </defs>
    <title>Unee-T - Logo Symbol</title>
</svg>