<?xml version="1.0" encoding="UTF-8"?>
<svg width="44px" height="44px" viewBox="0 0 44 44" version="1.1" xmlns="http://www.w3.org/2000/svg" xmlns:xlink="http://www.w3.org/1999/xlink">
    <!-- Generator: Sketch 47.1 (45422) - http://www.bohemiancoding.com/sketch -->
    <title>Slice</title>
    <desc>Created with Sketch.</desc>
    <defs>
        <path d="M17.502523,1.34258393e-06 C10.6395787,-0.00267723788 4.40887436,4.00285554 1.5687293,10.243359 C-1.27141577,16.4838624 -0.196414382,23.8066884 4.31783267,28.9700377 C3.41634048,30.7973468 2.19771097,32.8681017 0.835195081,34.1527909 C-1.13223087,36.0064978 5.53352572,34.410902 9.90590968,33.2318036 C16.3906152,36.3503862 24.1255678,35.1856315 29.401604,30.2960776 C34.6776402,25.4065237 36.4189191,17.7892036 33.7904403,11.0968722 C31.1619615,4.40454074 24.6997004,0.00183683399 17.502523,1.34258393e-06 Z" id="path-1"></path>
        <filter x="-20.0%" y="-14.3%" width="140.0%" height="140.0%" filterUnits="objectBoundingBox" id="filter-2">
            <feOffset dx="0" dy="2" in="SourceAlpha" result="shadowOffsetOuter1"></feOffset>
            <feGaussianBlur stdDeviation="2" in="shadowOffsetOuter1" result="shadowBlurOuter1"></feGaussianBlur>
            <feColorMatrix values="0 0 0 0 0   0 0 0 0 0   0 0 0 0 0  0 0 0 0.107591712 0" type="matrix" in="shadowBlurOuter1"></feColorMatrix>
        </filter>
        <g id="icon" stroke="none" stroke-width="1" fill="none" fill-rule="evenodd">
            <g id="unee-t_logo_reverse">
                <g id="Logo/symbol-reverse" transform="translate(5.000000, 5.000000)">
                    <g id="Group-3">
                        <g id="_Path_3" fill-rule="nonzero">
                            <use fill="black" fill-opacity="1" filter="url(#filter-2)" xlink:href="#path-1"></use>
                            <use fill="#FFFFFF" fill-rule="evenodd" xlink:href="#path-1"></use>
                        </g>
                        <g id="_Group_2" transform="translate(6.956522, 7.656250)" fill-rule="nonzero" fill="#0099BC">
                            <path d="M21.8744575,10.4127016 L17.8711354,6.5079385 L16.9172646,7.42792435 L19.7847469,10.2292961 L18.8837059,10.2292961 C18.5189925,10.2292961 18.2233338,10.5272884 18.2233338,10.8948807 L18.2233338,18.2902653 L3.89472765,18.2902653 L3.89472765,10.8948807 C3.89630969,10.7163035 3.82662468,10.5445766 3.70133547,10.4182984 C3.57604627,10.2920203 3.40566425,10.2217852 3.22848562,10.2233797 L2.34798954,10.2233797 L11.0590307,1.67135693 L15.3675915,5.8985588 L16.394837,5.0525268 L11.5198237,0.266233848 C11.263404,0.0144780607 10.8546575,0.0144780607 10.5982378,0.266233848 L0.243603915,10.4127016 C0.0515147272,10.6017073 -0.0079396642,10.8891041 0.0932014862,11.1397324 C0.194342637,11.3903607 0.435949434,11.5543386 0.704396862,11.554549 L2.57104855,11.554549 L2.57104855,18.9499336 C2.56790582,19.127987 2.63568733,19.2998839 2.75923731,19.4271887 C2.8827873,19.5544935 3.05180035,19.6265876 3.22848562,19.6273509 L18.8837059,19.6273509 C19.0593554,19.6281377 19.2280786,19.5583613 19.3525579,19.4334546 C19.4770372,19.3085479 19.5470146,19.138804 19.5470129,18.9617663 L19.5470129,11.5663816 L21.4254045,11.5663816 C21.693852,11.5661712 21.9354588,11.4021933 22.0365999,11.151565 C22.1377411,10.9009367 22.0782867,10.6135399 21.8861975,10.4245342 L21.8744575,10.4127016 Z" id="_Path_4"></path>
                        </g>
                        <path d="M13.8725446,20.059999 C14.5980361,20.8826562 15.5770126,22.0185671 16.6375704,23.3213517 C16.8426302,23.5594999 17.1588875,23.6691091 17.4664597,23.6086299 C17.7740319,23.5481507 18.0258394,23.3268407 18.1264304,23.0285911 C19.0005165,20.3264111 21.4246487,14.8312953 27.0799859,11.7016849 C27.1609867,11.6602369 27.1958729,11.5625894 27.1596007,11.4788405 C27.1233286,11.3950916 27.028437,11.3541925 26.9430457,11.3855035 C24.0032028,12.369179 18.6334004,15.7359254 16.9464142,20.8592353 C16.9464142,20.8592353 15.780966,19.3280976 14.5951225,18.9504364 C14.3009297,18.8508451 13.9769237,18.9635239 13.8069431,19.2245396 C13.6369624,19.4855553 13.66393,19.8289972 13.8725446,20.059999 Z" id="Shape" fill="#CFD924" fill-rule="nonzero"></path>
                    </g>
                </g>
            </g>
        </g>
    </defs>
</svg>